<?xml version="1.0" standalone="no"?>
<!DOCTYPE svg PUBLIC "-//W3C//DTD SVG 20010904//EN"
 "http://www.w3.org/TR/2001/REC-SVG-20010904/DTD/svg10.dtd">
<svg version="1.0" xmlns="http://www.w3.org/2000/svg"
 width="708.000000pt" height="708.000000pt" viewBox="0 0 708.000000 708.000000"
 preserveAspectRatio="xMidYMid meet">
<metadata>
Created by potrace 1.14, written by Peter Selinger 2001-2017
</metadata>
<g transform="translate(0.000000,708.000000) scale(0.100000,-0.100000)"
fill="#000000" stroke="none">
<path d="M3490 6914 c-47 -20 -104 -45 -127 -55 -24 -11 -82 -35 -130 -55 -49
-20 -101 -42 -118 -49 -33 -15 -269 -113 -465 -195 -120 -50 -142 -59 -220
-93 -19 -8 -145 -61 -280 -117 -135 -56 -264 -111 -287 -121 -23 -10 -44 -19
-48 -19 -3 0 -24 -9 -48 -19 -34 -16 -165 -72 -282 -120 -11 -5 -47 -20 -80
-34 -33 -14 -175 -73 -315 -132 -140 -59 -274 -116 -297 -126 -23 -10 -48 -19
-55 -19 -8 0 -18 -4 -24 -8 -5 -5 -83 -40 -174 -77 -91 -37 -175 -78 -187 -91
-19 -21 -21 -32 -19 -131 1 -59 1 -113 -2 -120 -2 -7 -18 -17 -36 -23 l-33
-11 0 -1882 0 -1883 61 -29 c33 -16 111 -52 171 -81 159 -76 318 -151 410
-194 117 -55 250 -117 332 -156 69 -33 74 -34 106 -20 33 13 37 12 158 -46
110 -53 163 -78 179 -83 3 -1 52 -24 110 -52 58 -28 157 -76 222 -106 113 -54
116 -56 114 -86 -2 -23 3 -32 17 -37 10 -3 97 -44 193 -90 96 -46 176 -84 178
-84 3 0 73 -33 158 -74 84 -40 180 -86 213 -101 33 -15 98 -47 146 -69 82 -40
86 -41 121 -28 35 14 39 13 140 -37 57 -28 115 -51 128 -51 14 0 52 12 85 26
195 82 183 79 222 60 l36 -17 131 55 c72 30 253 105 401 167 149 61 281 116
295 122 14 6 27 11 30 12 3 1 23 9 45 19 22 10 64 27 93 38 50 19 52 21 52 56
l0 37 108 44 c59 25 125 53 147 62 22 10 81 34 130 55 50 20 114 47 143 60 29
13 55 24 59 24 3 0 24 9 47 19 23 10 76 34 119 51 77 33 78 33 115 16 l38 -17
104 44 c136 58 319 134 473 198 67 28 136 57 152 64 17 7 50 22 75 32 25 11
92 39 150 63 58 24 110 47 115 51 7 5 10 638 9 1871 -1 1024 -2 1870 -3 1879
-1 8 -23 26 -50 38 l-48 23 0 97 c0 53 -2 108 -6 122 -7 27 -44 48 -247 142
-72 33 -204 95 -377 178 -46 22 -127 60 -180 85 -54 25 -134 63 -178 84 -44
21 -120 57 -170 80 -49 24 -137 65 -195 92 -58 28 -217 103 -355 168 -137 64
-299 141 -360 170 -60 29 -180 85 -265 125 -85 40 -213 101 -285 135 -71 34
-188 89 -260 122 -71 34 -135 65 -141 70 -6 4 -31 10 -55 13 -36 4 -60 -1
-129 -31z"/>
</g>
</svg>
