<svg width="62" height="62" viewBox="0 0 62 62" fill="none" xmlns="http://www.w3.org/2000/svg">
<path d="M39.077 15.5485L51.2227 28.2633C51.9492 28.9656 52.3125 29.9223 52.3125 30.9758C52.3125 32.0293 51.9492 32.9739 51.2227 33.6883L39.077 46.4516C37.6359 47.9653 35.2867 47.9653 33.8457 46.4516C32.4047 44.9379 32.4047 42.4918 33.8457 40.9781L39.6703 34.875H13.393C11.3465 34.875 9.6875 33.1434 9.6875 31C9.6875 28.8567 11.3465 27.125 13.393 27.125H39.6703L33.8336 21.0219C32.3926 19.5082 32.3926 17.0621 33.8336 15.5485C35.2867 14.0348 37.6238 14.0348 39.077 15.5485Z" fill="#CDA5A5"/>
</svg>
