<svg width="62" height="62" viewBox="0 0 62 62" fill="none" xmlns="http://www.w3.org/2000/svg">
<path d="M22.923 15.5485L10.7773 28.2633C10.0508 28.9656 9.6875 29.9223 9.6875 30.9758C9.6875 32.0293 10.0508 32.9739 10.7773 33.6883L22.923 46.4516C24.3641 47.9653 26.7133 47.9653 28.1543 46.4516C29.5953 44.9379 29.5953 42.4918 28.1543 40.9781L22.3297 34.875H48.607C50.6535 34.875 52.3125 33.1434 52.3125 31C52.3125 28.8567 50.6535 27.125 48.607 27.125H22.3297L28.1664 21.0219C29.6074 19.5082 29.6074 17.0621 28.1664 15.5485C26.7133 14.0348 24.3762 14.0348 22.923 15.5485Z" fill="#CDA5A5"/>
</svg>
